<?xml version="1.0" encoding="UTF-8"?>
<svg version="1.1" xmlns="http://www.w3.org/2000/svg" width="512" height="512">
<path d="M0 0 C1.509888 -0.00123634 3.01977575 -0.0028092 4.52966309 -0.00468445 C9.31146246 -0.00848329 14.09321 -0.0011513 18.875 0.0078125 C20.53393554 0.01039012 22.19287109 0.01296373 23.85180664 0.01553345 C33.09783837 0.03142045 42.34376136 0.06121093 51.58971405 0.10236645 C56.31409562 0.12320599 61.038448 0.13902349 65.76286316 0.14969254 C73.37196189 0.16710511 80.98009019 0.21113038 88.58886719 0.28741455 C91.10117824 0.30924418 93.6135757 0.32279142 96.12597656 0.32781982 C99.57427938 0.3369181 103.02081299 0.37700705 106.46875 0.42578125 C107.97882629 0.41989738 107.97882629 0.41989738 109.51940918 0.41389465 C116.25439377 0.55785602 116.25439377 0.55785602 119.37426758 3.44824219 C119.86950928 4.33415039 120.36475098 5.22005859 120.875 6.1328125 C121.51151489 7.05719116 121.51151489 7.05719116 122.16088867 8.00024414 C122.5344751 8.59184326 122.90806152 9.18344238 123.29296875 9.79296875 C123.73406982 10.49010986 124.1751709 11.18725098 124.62963867 11.90551758 C125.10248291 12.6611499 125.57532715 13.41678223 126.0625 14.1953125 C126.57079346 15.00315186 127.07908691 15.81099121 127.6027832 16.64331055 C133.09135683 25.40696901 138.43242282 34.26082677 143.77685547 43.11279297 C148.08059322 50.23255517 152.46129878 57.27801414 157.11328125 64.17578125 C158.52282779 66.54169417 159.60828253 68.73370408 160.68359375 71.25 C163.21168398 77.11126959 166.42926678 82.55328295 169.625 88.0703125 C170.8111907 90.11884098 171.993689 92.16951352 173.171875 94.22265625 C173.95062988 95.56638306 173.95062988 95.56638306 174.74511719 96.93725586 C175.875 99.1328125 175.875 99.1328125 175.875 101.1328125 C176.535 101.4628125 177.195 101.7928125 177.875 102.1328125 C179.32117787 104.59247648 180.68000518 107.04459803 182 109.5703125 C182.37253906 110.26447266 182.74507812 110.95863281 183.12890625 111.67382812 C185.875 116.86927656 185.875 116.86927656 185.875 119.1328125 C186.535 119.4628125 187.195 119.7928125 187.875 120.1328125 C190.875 125.55588942 190.875 125.55588942 190.875 128.1328125 C191.535 128.4628125 192.195 128.7928125 192.875 129.1328125 C194.17236008 131.36367535 195.38419341 133.59001477 196.5625 135.8828125 C197.21169817 137.12788661 197.86146246 138.37266567 198.51171875 139.6171875 C198.84701096 140.26177917 199.18230316 140.90637085 199.52775574 141.57049561 C201.17158939 144.69689432 202.84643134 147.80591813 204.52270508 150.91503906 C204.84590981 151.5147049 205.16911453 152.11437073 205.50211334 152.73220825 C206.29283316 154.19920701 207.08388293 155.66602792 207.875 157.1328125 C207.87277939 155.95961456 207.87055878 154.78641663 207.86827087 153.57766724 C207.84803144 142.54118255 207.83302398 131.5047016 207.82318783 120.46820259 C207.81796105 114.79373529 207.81086709 109.11928292 207.79956055 103.44482422 C207.78872443 97.97243985 207.78272162 92.50006989 207.78012276 87.02767563 C207.77826982 84.93601123 207.77465171 82.84434766 207.76926994 80.75268936 C207.76204993 77.83136519 207.76100947 74.91010114 207.76147461 71.98876953 C207.75787933 71.11699066 207.75428406 70.24521179 207.75057983 69.34701538 C207.76094784 63.36091682 207.76094784 63.36091682 208.875 61.1328125 C208.96100714 59.2587702 208.98209652 57.38160634 208.97265625 55.50561523 C208.96935303 54.32776962 208.9660498 53.14992401 208.96264648 51.93638611 C208.95019897 50.02074608 208.95019897 50.02074608 208.9375 48.06640625 C208.93171598 46.07400323 208.92593734 44.08160017 208.92048645 42.08919621 C208.90953097 38.58288243 208.89205393 35.07660105 208.875 31.5703125 C208.85466491 27.38558955 208.83542954 23.20088644 208.82397461 19.01612854 C208.8163961 16.40749893 208.80427685 13.79887809 208.78735352 11.19029236 C208.78405029 10.01559891 208.78074707 8.84090546 208.77734375 7.63061523 C208.77210693 6.59073959 208.76687012 5.55086395 208.76147461 4.47947693 C208.875 2.1328125 208.875 2.1328125 209.875 1.1328125 C253.105 1.1328125 296.335 1.1328125 340.875 1.1328125 C340.875 116.6328125 340.875 232.1328125 340.875 351.1328125 C291.375 351.1328125 241.875 351.1328125 190.875 351.1328125 C186.875 345.1328125 186.875 345.1328125 186.875 343.1328125 C186.215 342.8028125 185.555 342.4728125 184.875 342.1328125 C183.76967894 340.1884783 182.73779072 338.20191152 181.75 336.1953125 C181.21117187 335.11378906 180.67234375 334.03226562 180.1171875 332.91796875 C178.875 330.1328125 178.875 330.1328125 178.875 328.1328125 C178.215 327.8028125 177.555 327.4728125 176.875 327.1328125 C175.76967894 325.1884783 174.73779072 323.20191152 173.75 321.1953125 C173.21117187 320.11378906 172.67234375 319.03226562 172.1171875 317.91796875 C170.875 315.1328125 170.875 315.1328125 170.875 313.1328125 C170.215 312.8028125 169.555 312.4728125 168.875 312.1328125 C167.72267919 310.00473617 166.66241886 307.8791826 165.625 305.6953125 C162.0310909 298.32606082 158.21432479 291.09331959 154.3125 283.8828125 C153.72549316 282.79621338 153.13848633 281.70961426 152.53369141 280.59008789 C150.30332803 276.46412431 148.07045385 272.33952323 145.83636475 268.21557617 C143.72524617 264.31793974 141.61807035 260.41821717 139.51589966 256.51574707 C138.84080157 255.26447631 138.16411397 254.01406178 137.48580933 252.76452637 C136.54145139 251.02474923 135.60262115 249.28197503 134.6640625 247.5390625 C134.12475098 246.54197266 133.58543945 245.54488281 133.02978516 244.51757812 C131.875 242.1328125 131.875 242.1328125 131.875 240.1328125 C131.215 239.8028125 130.555 239.4728125 129.875 239.1328125 C128.76967894 237.1884783 127.73779072 235.20191152 126.75 233.1953125 C126.21117187 232.11378906 125.67234375 231.03226563 125.1171875 229.91796875 C123.875 227.1328125 123.875 227.1328125 123.875 225.1328125 C123.215 224.8028125 122.555 224.4728125 121.875 224.1328125 C120.76967894 222.1884783 119.73779072 220.20191152 118.75 218.1953125 C118.21117187 217.11378906 117.67234375 216.03226563 117.1171875 214.91796875 C115.875 212.1328125 115.875 212.1328125 115.875 210.1328125 C115.215 209.8028125 114.555 209.4728125 113.875 209.1328125 C112.72271167 207.00479615 111.6620417 204.87929539 110.625 202.6953125 C106.21691966 193.63105026 101.42441655 184.78065215 96.62402344 175.92016602 C96.03911133 174.84049561 95.45419922 173.7608252 94.8515625 172.6484375 C94.32643066 171.68196289 93.80129883 170.71548828 93.26025391 169.71972656 C92.09321801 167.54032713 90.97489245 165.3464145 89.875 163.1328125 C89.87722061 164.0722168 89.87944122 165.01162109 89.88172913 165.97949219 C89.90995639 178.36392165 89.92708553 190.74835564 89.9375 203.1328125 C89.93878403 204.64860649 89.93878403 204.64860649 89.94009399 206.19502258 C89.97612109 254.51432867 89.44679815 302.8158691 88.875 351.1328125 C45.315 351.1328125 1.755 351.1328125 -43.125 351.1328125 C-43.125 235.6328125 -43.125 120.1328125 -43.125 1.1328125 C-13.13342633 -0.02070956 -13.13342633 -0.02070956 0 0 Z " fill="#4B4AE3" transform="translate(107.125,79.8671875)"/>
<path d="M0 0 C1.21233482 -0.00453111 2.42466964 -0.00906223 3.67374188 -0.01373065 C7.00382816 -0.02412419 10.3336967 -0.02571375 13.66378343 -0.02334189 C17.26934023 -0.02293081 20.87486579 -0.03400067 24.48040771 -0.04345703 C31.53240061 -0.0600071 38.58436006 -0.06556391 45.63637077 -0.06668179 C51.37627898 -0.0676354 57.11617626 -0.07176124 62.85608101 -0.07808304 C79.16939333 -0.09568138 95.48267943 -0.10492446 111.79600131 -0.10342209 C113.11273528 -0.10330222 113.11273528 -0.10330222 114.45606995 -0.10317993 C115.77443294 -0.10305729 115.77443294 -0.10305729 117.11942954 -0.10293217 C131.34381663 -0.10212033 145.56809757 -0.12123603 159.792454 -0.14945666 C174.43677352 -0.17827852 189.08104145 -0.19199177 203.72539002 -0.19026911 C211.93133631 -0.18960827 220.13717141 -0.19496498 228.34309196 -0.21662521 C235.33352798 -0.23496025 242.32380243 -0.23908466 249.31425225 -0.22560637 C252.87139341 -0.21913729 256.42822576 -0.2187352 259.9853363 -0.23631287 C279.26961519 -0.32565767 298.78042797 0.12220985 316.76002502 7.95492554 C317.98096863 8.46648193 317.98096863 8.46648193 319.22657776 8.9883728 C331.63979322 14.35108632 342.16726441 21.42949926 352.38502502 30.26742554 C353.41627502 31.05117554 354.44752502 31.83492554 355.51002502 32.64242554 C376.4641408 51.77444429 390.82583096 82.0380228 392.57263255 110.30311298 C392.64591218 113.49995691 392.66136566 116.69145945 392.65245056 119.88912964 C392.65698167 121.10217002 392.66151279 122.31521041 392.66618121 123.56500959 C392.67657478 126.89702645 392.67816431 130.22882569 392.67579246 133.56084299 C392.67538138 137.16842566 392.68645113 140.77597711 392.69590759 144.38354492 C392.71245727 151.43921283 392.71801444 158.4948473 392.71913235 165.550533 C392.7200859 171.29283348 392.72421146 177.03512302 392.7305336 182.77742004 C392.74813121 199.09579802 392.75737504 215.41414979 392.75587265 231.73253733 C392.75575278 233.04966539 392.75575278 233.04966539 392.75563049 234.3934021 C392.75554873 235.27257307 392.75546697 236.15174405 392.75538273 237.05755657 C392.75457073 251.28908572 392.77369065 265.52050881 392.80190723 279.75200731 C392.83072173 294.40197206 392.84444276 309.05188525 392.84271967 323.70187902 C392.84205862 331.91170581 392.84742492 340.12142146 392.86907578 348.33122253 C392.88740099 355.32424897 392.89154302 362.31711393 392.87805693 369.31015414 C392.87158324 372.8691966 392.87120319 376.42793034 392.88876343 379.98694229 C393.05209261 415.34172455 385.49497442 444.93307679 362.38502502 472.26742554 C361.80365784 473.01250366 361.22229065 473.75758179 360.62330627 474.52523804 C344.41076356 494.69903174 318.06569461 506.02271388 293.38502502 511.26742554 C292.20612387 511.52464779 292.20612387 511.52464779 291.00340652 511.78706646 C285.7734307 512.48137312 280.58995203 512.41544494 275.3195343 512.41459656 C274.09387512 512.41827325 272.86821595 512.42194993 271.60541558 512.42573804 C268.21043392 512.43483898 264.81550049 512.43946889 261.42051125 512.44212735 C257.75560893 512.44604154 254.09072046 512.45561928 250.42582703 512.46434021 C241.57684925 512.4840763 232.72787037 512.49416858 223.87887609 512.503068 C219.70514628 512.5074568 215.53141772 512.51282218 211.3576889 512.51805687 C197.47083678 512.53506858 183.58398542 512.54955979 169.69712448 512.55680561 C166.09569549 512.55871532 162.4942665 512.56063567 158.89283752 512.56259155 C157.99778646 512.56307529 157.1027354 512.56355903 156.18056157 512.56405743 C141.70157772 512.57234663 127.22267678 512.59766499 112.74372908 512.63017223 C97.85666721 512.66332133 82.96964734 512.68126157 68.08254838 512.68444985 C59.732961 512.68660802 51.38349442 512.69525424 43.03394318 512.72091103 C35.91848651 512.74272582 28.80318 512.75061602 21.68769369 512.74094424 C18.06412782 512.73643008 14.44087101 512.73811481 10.81734848 512.75770569 C-25.77628877 512.94452953 -57.99602588 503.19722223 -85.18528748 477.79086304 C-107.03036901 455.10288447 -119.76725072 425.64319912 -119.762146 394.11964417 C-119.76582268 392.89721412 -119.76949937 391.67478407 -119.77328748 390.41531068 C-119.78237849 387.03398989 -119.78701611 383.65271749 -119.78967679 380.27138913 C-119.79359494 376.6194561 -119.80317227 372.96753692 -119.81188965 369.31561279 C-119.83161301 360.50116497 -119.84171569 351.68671608 -119.85061744 342.87225172 C-119.8550077 338.71396512 -119.86037264 334.55567978 -119.86560631 330.39739418 C-119.88261557 316.56111382 -119.89710713 302.72483424 -119.90435505 288.88854504 C-119.90626472 285.30137824 -119.90818509 281.71421145 -119.91014099 278.12704468 C-119.91062473 277.23554973 -119.91110847 276.34405478 -119.91160687 275.42554484 C-119.91989748 261.0015899 -119.94521934 246.57771815 -119.97772167 232.1537995 C-120.01087095 217.32094655 -120.02881096 202.48813576 -120.03199929 187.6552456 C-120.03415728 179.33697206 -120.04280092 171.01881977 -120.06846046 162.7005825 C-120.0902754 155.61259828 -120.09816533 148.52476478 -120.08849368 141.43675079 C-120.08397977 137.82735438 -120.08566282 134.21826823 -120.10525513 130.60891533 C-120.26916449 98.60509306 -113.71712515 70.7673753 -93.61497498 45.26742554 C-92.87763123 44.29160522 -92.14028748 43.31578491 -91.38059998 42.31039429 C-76.91514467 23.89766605 -55.2101117 11.1100934 -32.92747498 4.45492554 C-32.27553162 4.2600354 -31.62358826 4.06514526 -30.95188904 3.86434937 C-20.72006081 0.99250149 -10.59918763 -0.02956867 0 0 Z M-23.61497498 28.26742554 C-24.40828972 28.48998898 -25.20160446 28.71255241 -26.01895905 28.9418602 C-42.03688993 33.88912513 -57.19804562 43.25720311 -67.90794373 56.22445679 C-69.07151065 57.61700942 -70.28588308 58.96827274 -71.54075623 60.27914429 C-87.86170335 77.42406156 -94.76608398 100.69927195 -94.762146 123.90821838 C-94.76582268 125.07615112 -94.76949937 126.24408386 -94.77328748 127.4474085 C-94.78237541 130.67664043 -94.78701545 133.90584249 -94.78967679 137.13508499 C-94.79359629 140.62345591 -94.80317362 144.11181234 -94.81188965 147.60017395 C-94.83161102 156.02011629 -94.84171622 164.44005976 -94.85061744 172.86001942 C-94.85500872 176.83375165 -94.86037346 180.80748256 -94.86560631 184.78121376 C-94.88261667 198.00671073 -94.89710712 211.2322069 -94.90435505 224.45771313 C-94.90626468 227.88639006 -94.90818505 231.31506699 -94.91014099 234.7437439 C-94.91062473 235.59583623 -94.91110847 236.44792857 -94.91160687 237.32584188 C-94.91989328 251.10502822 -94.94520751 264.88412735 -94.97772167 278.66327568 C-95.01089509 292.83847114 -95.02881319 307.01362245 -95.03199929 321.1888569 C-95.03415525 329.13607812 -95.04276844 337.0831723 -95.06846046 345.03035545 C-95.09030875 351.80390927 -95.09814936 358.57730518 -95.08849368 365.35089024 C-95.08398898 368.79851876 -95.08560706 372.24582249 -95.10525513 375.69340515 C-95.26273553 408.76130434 -89.18158919 435.80547184 -65.61497498 460.26742554 C-50.95107867 473.93715938 -34.07967798 482.18172361 -14.61497498 486.26742554 C-13.78986105 486.44523937 -12.96474712 486.62305321 -12.11462975 486.80625534 C-7.07067296 487.47092734 -2.07391904 487.4118709 3.00840759 487.40786743 C4.18647527 487.41083855 5.36454295 487.41380968 6.57830966 487.41687083 C9.8403286 487.42403489 13.10231541 487.42672889 16.36434102 487.4274683 C19.88605285 487.42932369 23.40775336 487.43687365 26.92945862 487.44360352 C34.62827763 487.45716999 42.32709142 487.46320946 50.02592039 487.46761417 C54.83863275 487.47038051 59.6513431 487.47461868 64.46405411 487.47911835 C77.80361238 487.49131082 91.14316905 487.50160887 104.48273277 487.50499344 C105.33610432 487.505213 106.18947586 487.50543257 107.06870715 487.50565879 C107.92406611 487.50587707 108.77942508 487.50609535 109.66070402 487.50632024 C111.39384357 487.5067637 113.12698313 487.50721026 114.86012268 487.50765991 C116.14965514 487.50799206 116.14965514 487.50799206 117.46523876 487.50833091 C131.376504 487.51227383 145.2877167 487.52971247 159.19896166 487.55301943 C173.50066789 487.5767859 187.80234783 487.58919776 202.10407412 487.59036136 C210.12605121 487.59127536 218.14795991 487.59695777 226.16991806 487.61518097 C233.00507769 487.63065387 239.84014779 487.63566049 246.67532162 487.62744287 C250.15682107 487.62356107 253.63814065 487.62434324 257.11961746 487.63850021 C276.08535577 487.70253349 292.80221216 487.10580496 310.38502502 479.26742554 C312.08078674 478.52879272 312.08078674 478.52879272 313.81080627 477.77523804 C337.00254822 466.99198094 353.5720785 447.13754865 362.38502502 423.26742554 C366.15470517 411.47925849 367.53545115 399.96659755 367.52546692 387.65150452 C367.52843804 386.498346 367.53140916 385.34518748 367.53447032 384.15708476 C367.54161714 380.97378556 367.54432703 377.79051936 367.54506779 374.60721338 C367.5469274 371.1665979 367.55447942 367.7259939 367.561203 364.28538513 C367.57475232 356.76829554 367.58080625 349.25121131 367.58521366 341.73411155 C367.58798287 337.03225642 367.59222154 332.33040333 367.59671783 327.62854958 C367.608908 314.58830107 367.61920655 301.54805418 367.62259293 288.5078001 C367.62281249 287.67405915 367.62303206 286.84031821 367.62325828 285.98131238 C367.62347656 285.14566568 367.62369483 284.31001898 367.62391973 283.44904965 C367.62436318 281.75593992 367.62480974 280.06283019 367.6252594 278.36972046 C367.62548083 277.52989377 367.62570226 276.69006709 367.6259304 275.82479111 C367.6298722 262.23900545 367.64730847 248.65327362 367.67061892 235.06750872 C367.694406 221.0900382 367.70679818 207.11259459 367.70796084 193.13510352 C367.70887369 185.29917804 367.71452649 177.46332265 367.73278046 169.62741661 C367.74828138 162.95012717 367.75324379 156.27292947 367.74504235 149.59562542 C367.74117025 146.19673328 367.74357008 142.79817348 367.7560997 139.39928055 C367.86992125 106.575922 363.32534742 77.51068635 339.38502502 53.26742554 C335.86890065 50.04103767 332.21246516 47.11418921 328.38502502 44.26742554 C327.59740784 43.65383179 326.80979065 43.04023804 325.99830627 42.40805054 C309.42921737 30.02916097 290.05164194 25.11086804 269.63465881 25.12698364 C268.45503114 25.12401252 267.27540347 25.1210414 266.06002951 25.11798024 C262.79833928 25.11082414 259.53668123 25.10812281 256.27498436 25.10738277 C252.75194591 25.10552549 249.22891873 25.09797471 245.70588684 25.09124756 C238.00719419 25.07769004 230.30850676 25.07164331 222.60980415 25.0672369 C217.79726171 25.06446964 212.98472127 25.06023137 208.17218018 25.05573273 C194.83257931 25.04354255 181.49298003 25.03324331 168.15337372 25.02985764 C167.30028573 25.02963807 166.44719775 25.0294185 165.56825861 25.02919228 C164.28565912 25.02886487 164.28565912 25.02886487 162.97714853 25.02853084 C161.24461778 25.02808738 159.51208703 25.02764082 157.77955627 25.02719116 C156.92017116 25.02696973 156.06078604 25.0267483 155.17535895 25.02652016 C141.26348174 25.02257572 127.35165703 25.00513139 113.43980008 24.98183164 C99.13693701 24.9580716 84.83410022 24.94565364 70.5312171 24.94448972 C62.50872785 24.94357548 54.48630699 24.93788678 46.46383667 24.9196701 C39.62977062 24.90420606 32.79579409 24.89918553 25.96171385 24.90740821 C22.48033136 24.91129278 18.99912876 24.91049379 15.51776886 24.89635086 C-4.25573771 24.73142988 -4.25573771 24.73142988 -23.61497498 28.26742554 Z " fill="#4946E3" transform="translate(119.61497497558594,-0.267425537109375)"/>
</svg>
